<svg width="855" height="279" viewBox="0 0 855 279" xmlns="http://www.w3.org/2000/svg"><defs><pattern id="satori_pattern_id_0" x="0" y="0" width="1" height="1" patternUnits="objectBoundingBox"><linearGradient id="satori_biid_0" x1="0" y1="0" x2="0" y2="1" spreadMethod="pad"><stop offset="0%" stop-color="#dbf4ff"/><stop offset="100%" stop-color="#fff1f1"/></linearGradient><rect x="0" y="0" width="855" height="279" fill="url(#satori_biid_0)"/></pattern></defs><mask id="satori_om-id"><rect x="0" y="0" width="855" height="279" fill="#fff"/></mask><rect x="0" y="0" width="855" height="279" fill="url(#satori_pattern_id_0)"/><clipPath id="satori_bct-id-0"><path d="M278.0 125.1L268.8 125.1L268.8 81.5L297.7 81.5L297.7 89.1L278.0 89.1L278.0 99.5L295.8 99.5L295.8 107.1L278.0 107.1L278.0 125.1ZM320.7 111.2L320.7 111.2L320.7 92.4L329.7 92.4L329.7 125.1L321.0 125.1L321.0 119.2L320.7 119.2Q319.6 122.1 317.0 123.8Q314.4 125.6 310.7 125.6L310.7 125.6Q307.5 125.6 305.0 124.1Q302.5 122.6 301.1 119.8Q299.7 117.1 299.7 113.2L299.7 113.2L299.7 92.4L308.7 92.4L308.7 111.6Q308.8 114.5 310.3 116.2Q311.8 117.9 314.4 117.9L314.4 117.9Q316.1 117.9 317.5 117.1Q318.9 116.4 319.8 114.9Q320.7 113.4 320.7 111.2ZM332.7 92.4L352.4 92.4L352.4 99.2L332.7 99.2L332.7 92.4ZM337.2 116.3L337.2 84.6L346.2 84.6L346.2 115.1Q346.2 116.3 346.6 117.0Q347.0 117.7 347.7 118.0Q348.4 118.3 349.3 118.3L349.3 118.3Q349.9 118.3 350.6 118.1Q351.2 118.0 351.6 118.0L351.6 118.0L353.0 124.7Q352.3 124.9 351.1 125.2Q349.8 125.5 348.1 125.6L348.1 125.6Q344.8 125.7 342.3 124.7Q339.9 123.7 338.5 121.6Q337.1 119.5 337.2 116.3L337.2 116.3ZM377.3 111.2L377.3 111.2L377.3 92.4L386.4 92.4L386.4 125.1L377.6 125.1L377.6 119.2L377.3 119.2Q376.2 122.1 373.6 123.8Q371.1 125.6 367.4 125.6L367.4 125.6Q364.1 125.6 361.6 124.1Q359.1 122.6 357.7 119.8Q356.3 117.1 356.3 113.2L356.3 113.2L356.3 92.4L365.4 92.4L365.4 111.6Q365.4 114.5 366.9 116.2Q368.5 117.9 371.0 117.9L371.0 117.9Q372.7 117.9 374.1 117.1Q375.5 116.4 376.4 114.9Q377.3 113.4 377.3 111.2ZM400.7 125.1L391.6 125.1L391.6 92.4L400.4 92.4L400.4 98.1L400.7 98.1Q401.6 95.1 403.7 93.5Q405.8 91.9 408.6 91.9L408.6 91.9Q409.3 91.9 410.1 92.0Q410.9 92.1 411.5 92.2L411.5 92.2L411.5 100.3Q410.8 100.1 409.7 100.0Q408.6 99.8 407.6 99.8L407.6 99.8Q405.6 99.8 404.0 100.7Q402.5 101.5 401.6 103.1Q400.7 104.6 400.7 106.6L400.7 106.6L400.7 125.1ZM427.5 125.8L427.5 125.8Q422.5 125.8 418.8 123.7Q415.2 121.7 413.2 117.9Q411.3 114.1 411.3 108.9L411.3 108.9Q411.3 103.9 413.2 100.0Q415.2 96.2 418.8 94.1Q422.3 92.0 427.1 92.0L427.1 92.0Q430.4 92.0 433.2 93.0Q436.0 94.0 438.1 96.1Q440.2 98.2 441.3 101.3Q442.5 104.4 442.5 108.6L442.5 108.6L442.5 111.1L414.9 111.1L414.9 105.5L434.0 105.5Q434.0 103.5 433.1 102.0Q432.3 100.5 430.8 99.6Q429.3 98.7 427.3 98.7L427.3 98.7Q425.2 98.7 423.6 99.7Q422.0 100.6 421.2 102.2Q420.3 103.8 420.2 105.8L420.2 105.8L420.2 111.1Q420.2 113.5 421.1 115.3Q422.0 117.1 423.7 118.0Q425.4 119.0 427.6 119.0L427.6 119.0Q429.2 119.0 430.4 118.6Q431.7 118.1 432.6 117.3Q433.5 116.4 433.9 115.2L433.9 115.2L442.3 115.8Q441.7 118.8 439.7 121.0Q437.7 123.3 434.6 124.5Q431.5 125.8 427.5 125.8Z M489.4 81.5L498.6 81.5L498.6 125.1L490.6 125.1L471.7 97.7L471.3 97.7L471.3 125.1L462.1 125.1L462.1 81.5L470.2 81.5L489.0 108.9L489.4 108.9L489.4 81.5ZM518.8 125.8L518.8 125.8Q513.9 125.8 510.3 123.6Q506.6 121.5 504.7 117.7Q502.7 113.9 502.7 108.9L502.7 108.9Q502.7 103.8 504.7 100.0Q506.6 96.2 510.3 94.1Q513.9 92.0 518.8 92.0L518.8 92.0Q523.8 92.0 527.4 94.1Q531.0 96.2 533.0 100.0Q534.9 103.8 534.9 108.9L534.9 108.9Q534.9 113.9 533.0 117.7Q531.0 121.5 527.4 123.6Q523.8 125.8 518.8 125.8ZM518.9 118.7L518.9 118.7Q521.1 118.7 522.6 117.4Q524.2 116.2 524.9 113.9Q525.7 111.7 525.7 108.8L525.7 108.8Q525.7 106.0 524.9 103.7Q524.2 101.5 522.6 100.2Q521.1 98.9 518.9 98.9L518.9 98.9Q516.6 98.9 515.0 100.2Q513.5 101.5 512.7 103.7Q511.9 106.0 511.9 108.8L511.9 108.8Q511.9 111.7 512.7 113.9Q513.5 116.2 515.0 117.4Q516.6 118.7 518.9 118.7ZM536.6 92.4L556.3 92.4L556.3 99.2L536.6 99.2L536.6 92.4ZM541.0 116.3L541.0 84.6L550.1 84.6L550.1 115.1Q550.1 116.3 550.5 117.0Q550.9 117.7 551.6 118.0Q552.3 118.3 553.2 118.3L553.2 118.3Q553.8 118.3 554.5 118.1Q555.1 118.0 555.4 118.0L555.4 118.0L556.9 124.7Q556.2 124.9 554.9 125.2Q553.7 125.5 551.9 125.6L551.9 125.6Q548.7 125.7 546.2 124.7Q543.7 123.7 542.4 121.6Q541.0 119.5 541.0 116.3L541.0 116.3ZM574.7 125.8L574.7 125.8Q569.7 125.8 566.1 123.7Q562.4 121.7 560.5 117.9Q558.5 114.1 558.5 108.9L558.5 108.9Q558.5 103.9 560.5 100.0Q562.4 96.2 566.0 94.1Q569.6 92.0 574.4 92.0L574.4 92.0Q577.6 92.0 580.4 93.0Q583.2 94.0 585.3 96.1Q587.4 98.2 588.6 101.3Q589.8 104.4 589.8 108.6L589.8 108.6L589.8 111.1L562.1 111.1L562.1 105.5L581.2 105.5Q581.2 103.5 580.4 102.0Q579.5 100.5 578.0 99.6Q576.5 98.7 574.5 98.7L574.5 98.7Q572.5 98.7 570.9 99.7Q569.3 100.6 568.4 102.2Q567.5 103.8 567.5 105.8L567.5 105.8L567.5 111.1Q567.5 113.5 568.4 115.3Q569.3 117.1 571.0 118.0Q572.6 119.0 574.9 119.0L574.9 119.0Q576.4 119.0 577.7 118.6Q578.9 118.1 579.8 117.3Q580.7 116.4 581.2 115.2L581.2 115.2L589.6 115.8Q588.9 118.8 587.0 121.0Q585.0 123.3 581.9 124.5Q578.8 125.8 574.7 125.8Z "/></clipPath><defs><pattern id="satori_pattern_id-0_0" x="0" y="0" width="1" height="1" patternUnits="objectBoundingBox"><linearGradient id="satori_biid-0_0" x1="0" y1="0" x2="1" y2="0" spreadMethod="pad"><stop offset="0%" stop-color="rgb(121, 40, 202)"/><stop offset="100%" stop-color="rgb(255, 0, 128)"/></linearGradient><rect x="0" y="0" width="326" height="73" fill="url(#satori_biid-0_0)"/></pattern></defs><mask id="satori_om-id-0"><rect x="265" y="67" width="326" height="73" fill="#fff"/></mask><rect x="265" y="67" width="326" height="73" fill="url(#satori_pattern_id-0_0)" clip-path="url(#satori_bct-id-0)"/><clipPath id="satori_bct-id-1"><path d="M102.3 164.5L91.3 198.1L81.4 198.1L96.5 154.5L108.4 154.5L123.4 198.1L113.5 198.1L102.6 164.5L102.3 164.5ZM90.7 188.2L90.7 181.0L114.0 181.0L114.0 188.2L90.7 188.2Z M147.5 179.2L147.5 179.2L147.5 198.1L138.4 198.1L138.4 165.4L147.1 165.4L147.1 171.2L147.4 171.2Q148.5 168.3 151.1 166.6Q153.6 165.0 157.3 165.0L157.3 165.0Q160.7 165.0 163.2 166.5Q165.8 168.0 167.2 170.7Q168.6 173.5 168.6 177.3L168.6 177.3L168.6 198.1L159.5 198.1L159.5 178.9Q159.5 175.9 158.0 174.2Q156.4 172.5 153.7 172.5L153.7 172.5Q151.9 172.5 150.5 173.3Q149.1 174.1 148.3 175.6Q147.5 177.1 147.5 179.2ZM188.5 198.8L188.5 198.8Q183.5 198.8 179.9 196.6Q176.3 194.5 174.4 190.7Q172.4 186.9 172.4 181.9L172.4 181.9Q172.4 176.8 174.4 173.0Q176.3 169.2 179.9 167.1Q183.5 165.0 188.5 165.0L188.5 165.0Q193.5 165.0 197.1 167.1Q200.7 169.2 202.7 173.0Q204.6 176.8 204.6 181.9L204.6 181.9Q204.6 186.9 202.7 190.7Q200.7 194.5 197.1 196.6Q193.5 198.8 188.5 198.8ZM188.5 191.7L188.5 191.7Q190.8 191.7 192.3 190.4Q193.8 189.2 194.6 186.9Q195.4 184.7 195.4 181.8L195.4 181.8Q195.4 179.0 194.6 176.7Q193.8 174.5 192.3 173.2Q190.8 171.9 188.5 171.9L188.5 171.9Q186.3 171.9 184.7 173.2Q183.2 174.5 182.4 176.7Q181.6 179.0 181.6 181.8L181.6 181.8Q181.6 184.7 182.4 186.9Q183.2 189.2 184.7 190.4Q186.3 191.7 188.5 191.7ZM206.2 165.4L225.9 165.4L225.9 172.2L206.2 172.2L206.2 165.4ZM210.7 189.3L210.7 157.6L219.8 157.6L219.8 188.1Q219.8 189.3 220.2 190.0Q220.6 190.7 221.2 191.0Q221.9 191.3 222.9 191.3L222.9 191.3Q223.5 191.3 224.1 191.1Q224.8 191.0 225.1 191.0L225.1 191.0L226.5 197.7Q225.9 197.9 224.6 198.2Q223.4 198.5 221.6 198.6L221.6 198.6Q218.3 198.7 215.9 197.7Q213.4 196.7 212.0 194.6Q210.7 192.5 210.7 189.3L210.7 189.3ZM244.4 198.8L244.4 198.8Q239.4 198.8 235.7 196.7Q232.1 194.7 230.1 190.9Q228.2 187.1 228.2 181.9L228.2 181.9Q228.2 176.9 230.1 173.0Q232.1 169.2 235.7 167.1Q239.2 165.0 244.1 165.0L244.1 165.0Q247.3 165.0 250.1 166.0Q252.9 167.0 255.0 169.1Q257.1 171.2 258.3 174.3Q259.4 177.4 259.4 181.6L259.4 181.6L259.4 184.1L231.8 184.1L231.8 178.5L250.9 178.5Q250.9 176.5 250.0 175.0Q249.2 173.5 247.7 172.6Q246.2 171.7 244.2 171.7L244.2 171.7Q242.1 171.7 240.6 172.7Q239.0 173.6 238.1 175.2Q237.2 176.8 237.2 178.8L237.2 178.8L237.2 184.1Q237.2 186.5 238.1 188.3Q239.0 190.1 240.6 191.0Q242.3 192.0 244.6 192.0L244.6 192.0Q246.1 192.0 247.3 191.6Q248.6 191.1 249.5 190.3Q250.4 189.4 250.9 188.2L250.9 188.2L259.2 188.8Q258.6 191.8 256.6 194.0Q254.7 196.3 251.6 197.5Q248.5 198.8 244.4 198.8Z M273.3 165.4L293.0 165.4L293.0 172.2L273.3 172.2L273.3 165.4ZM277.8 189.3L277.8 157.6L286.9 157.6L286.9 188.1Q286.9 189.3 287.3 190.0Q287.6 190.7 288.3 191.0Q289.0 191.3 289.9 191.3L289.9 191.3Q290.6 191.3 291.2 191.1Q291.9 191.0 292.2 191.0L292.2 191.0L293.6 197.7Q292.9 197.9 291.7 198.2Q290.5 198.5 288.7 198.6L288.7 198.6Q285.4 198.7 283.0 197.7Q280.5 196.7 279.1 194.6Q277.8 192.5 277.8 189.3L277.8 189.3ZM311.4 198.8L311.4 198.8Q306.4 198.8 302.8 196.6Q299.2 194.5 297.2 190.7Q295.3 186.9 295.3 181.9L295.3 181.9Q295.3 176.8 297.2 173.0Q299.2 169.2 302.8 167.1Q306.4 165.0 311.4 165.0L311.4 165.0Q316.3 165.0 319.9 167.1Q323.6 169.2 325.5 173.0Q327.5 176.8 327.5 181.9L327.5 181.9Q327.5 186.9 325.5 190.7Q323.6 194.5 319.9 196.6Q316.3 198.8 311.4 198.8ZM311.4 191.7L311.4 191.7Q313.7 191.7 315.2 190.4Q316.7 189.2 317.5 186.9Q318.3 184.7 318.3 181.8L318.3 181.8Q318.3 179.0 317.5 176.7Q316.7 174.5 315.2 173.2Q313.7 171.9 311.4 171.9L311.4 171.9Q309.1 171.9 307.6 173.2Q306.0 174.5 305.3 176.7Q304.5 179.0 304.5 181.8L304.5 181.8Q304.5 184.7 305.3 186.9Q306.0 189.2 307.6 190.4Q309.1 191.7 311.4 191.7Z M349.3 210.4L349.3 210.4Q347.5 210.4 346.0 210.1Q344.5 209.9 343.6 209.5L343.6 209.5L345.6 202.7Q347.2 203.2 348.5 203.2Q349.8 203.3 350.7 202.6Q351.7 202.0 352.3 200.4L352.3 200.4L352.8 199.1L341.1 165.4L350.6 165.4L357.4 189.4L357.7 189.4L364.6 165.4L374.2 165.4L361.4 201.7Q360.5 204.3 359.0 206.3Q357.4 208.2 355.0 209.3Q352.6 210.4 349.3 210.4ZM390.5 198.8L390.5 198.8Q385.5 198.8 381.9 196.6Q378.3 194.5 376.4 190.7Q374.4 186.9 374.4 181.9L374.4 181.9Q374.4 176.8 376.4 173.0Q378.3 169.2 381.9 167.1Q385.5 165.0 390.5 165.0L390.5 165.0Q395.5 165.0 399.1 167.1Q402.7 169.2 404.7 173.0Q406.6 176.8 406.6 181.9L406.6 181.9Q406.6 186.9 404.7 190.7Q402.7 194.5 399.1 196.6Q395.5 198.8 390.5 198.8ZM390.6 191.7L390.6 191.7Q392.8 191.7 394.3 190.4Q395.8 189.2 396.6 186.9Q397.4 184.7 397.4 181.8L397.4 181.8Q397.4 179.0 396.6 176.7Q395.8 174.5 394.3 173.2Q392.8 171.9 390.6 171.9L390.6 171.9Q388.3 171.9 386.7 173.2Q385.2 174.5 384.4 176.7Q383.6 179.0 383.6 181.8L383.6 181.8Q383.6 184.7 384.4 186.9Q385.2 189.2 386.7 190.4Q388.3 191.7 390.6 191.7ZM431.5 184.2L431.5 184.2L431.5 165.4L440.6 165.4L440.6 198.1L431.9 198.1L431.9 192.2L431.6 192.2Q430.4 195.1 427.9 196.8Q425.3 198.6 421.6 198.6L421.6 198.6Q418.3 198.6 415.9 197.1Q413.4 195.6 412.0 192.8Q410.6 190.1 410.5 186.2L410.5 186.2L410.5 165.4L419.6 165.4L419.6 184.6Q419.6 187.5 421.2 189.2Q422.7 190.9 425.3 190.9L425.3 190.9Q426.9 190.9 428.4 190.1Q429.8 189.4 430.7 187.9Q431.6 186.4 431.5 184.2ZM454.9 198.1L445.9 198.1L445.9 165.4L454.7 165.4L454.7 171.1L455.0 171.1Q455.9 168.1 458.0 166.5Q460.1 164.9 462.9 164.9L462.9 164.9Q463.5 164.9 464.3 165.0Q465.1 165.1 465.7 165.2L465.7 165.2L465.7 173.3Q465.1 173.1 463.9 173.0Q462.8 172.8 461.9 172.8L461.9 172.8Q459.9 172.8 458.3 173.7Q456.7 174.5 455.8 176.1Q454.9 177.6 454.9 179.6L454.9 179.6L454.9 198.1Z M478.8 165.4L499.0 165.4L499.0 172.2L478.8 172.2L478.8 165.4ZM492.5 198.1L483.4 198.1L483.4 163.0Q483.4 159.5 484.8 157.1Q486.2 154.8 488.6 153.6Q491.1 152.4 494.1 152.4L494.1 152.4Q496.2 152.4 498.0 152.8Q499.7 153.1 500.6 153.3L500.6 153.3L498.9 160.2Q498.4 160.0 497.6 159.8Q496.8 159.7 496.0 159.7L496.0 159.7Q494.0 159.7 493.2 160.6Q492.5 161.5 492.5 163.2L492.5 163.2L492.5 198.1ZM523.5 184.2L523.5 184.2L523.5 165.4L532.6 165.4L532.6 198.1L523.9 198.1L523.9 192.2L523.5 192.2Q522.4 195.1 519.9 196.8Q517.3 198.6 513.6 198.6L513.6 198.6Q510.3 198.6 507.8 197.1Q505.3 195.6 503.9 192.8Q502.5 190.1 502.5 186.2L502.5 186.2L502.5 165.4L511.6 165.4L511.6 184.6Q511.6 187.5 513.1 189.2Q514.7 190.9 517.3 190.9L517.3 190.9Q518.9 190.9 520.3 190.1Q521.8 189.4 522.6 187.9Q523.5 186.4 523.5 184.2ZM535.5 165.4L555.2 165.4L555.2 172.2L535.5 172.2L535.5 165.4ZM540.0 189.3L540.0 157.6L549.1 157.6L549.1 188.1Q549.1 189.3 549.5 190.0Q549.8 190.7 550.5 191.0Q551.2 191.3 552.1 191.3L552.1 191.3Q552.8 191.3 553.4 191.1Q554.1 191.0 554.4 191.0L554.4 191.0L555.8 197.7Q555.1 197.9 553.9 198.2Q552.7 198.5 550.9 198.6L550.9 198.6Q547.6 198.7 545.2 197.7Q542.7 196.7 541.3 194.6Q540.0 192.5 540.0 189.3L540.0 189.3ZM580.1 184.2L580.1 184.2L580.1 165.4L589.2 165.4L589.2 198.1L580.5 198.1L580.5 192.2L580.1 192.2Q579.0 195.1 576.5 196.8Q573.9 198.6 570.2 198.6L570.2 198.6Q566.9 198.6 564.4 197.1Q561.9 195.6 560.6 192.8Q559.2 190.1 559.1 186.2L559.1 186.2L559.1 165.4L568.2 165.4L568.2 184.6Q568.2 187.5 569.8 189.2Q571.3 190.9 573.9 190.9L573.9 190.9Q575.5 190.9 576.9 190.1Q578.4 189.4 579.3 187.9Q580.1 186.4 580.1 184.2ZM603.5 198.1L594.4 198.1L594.4 165.4L603.2 165.4L603.2 171.1L603.6 171.1Q604.5 168.1 606.6 166.5Q608.7 164.9 611.4 164.9L611.4 164.9Q612.1 164.9 612.9 165.0Q613.7 165.1 614.3 165.2L614.3 165.2L614.3 173.3Q613.7 173.1 612.5 173.0Q611.4 172.8 610.5 172.8L610.5 172.8Q608.5 172.8 606.9 173.7Q605.3 174.5 604.4 176.1Q603.5 177.6 603.5 179.6L603.5 179.6L603.5 198.1ZM630.3 198.8L630.3 198.8Q625.3 198.8 621.7 196.7Q618.0 194.7 616.1 190.9Q614.1 187.1 614.1 181.9L614.1 181.9Q614.1 176.9 616.1 173.0Q618.0 169.2 621.6 167.1Q625.2 165.0 630.0 165.0L630.0 165.0Q633.2 165.0 636.0 166.0Q638.8 167.0 640.9 169.1Q643.0 171.2 644.2 174.3Q645.4 177.4 645.4 181.6L645.4 181.6L645.4 184.1L617.7 184.1L617.7 178.5L636.8 178.5Q636.8 176.5 636.0 175.0Q635.1 173.5 633.6 172.6Q632.1 171.7 630.1 171.7L630.1 171.7Q628.1 171.7 626.5 172.7Q624.9 173.6 624.0 175.2Q623.1 176.8 623.1 178.8L623.1 178.8L623.1 184.1Q623.1 186.5 624.0 188.3Q624.9 190.1 626.6 191.0Q628.2 192.0 630.5 192.0L630.5 192.0Q632.0 192.0 633.3 191.6Q634.5 191.1 635.4 190.3Q636.3 189.4 636.8 188.2L636.8 188.2L645.2 188.8Q644.5 191.8 642.6 194.0Q640.6 196.3 637.5 197.5Q634.4 198.8 630.3 198.8Z M690.0 174.7L690.0 174.7L681.7 175.2Q681.4 174.2 680.7 173.3Q680.0 172.5 678.9 171.9Q677.8 171.4 676.2 171.4L676.2 171.4Q674.1 171.4 672.6 172.3Q671.2 173.2 671.2 174.6L671.2 174.6Q671.2 175.8 672.1 176.6Q673.1 177.4 675.3 177.9L675.3 177.9L681.3 179.1Q686.0 180.1 688.4 182.3Q690.7 184.4 690.7 188.0L690.7 188.0Q690.7 191.2 688.8 193.6Q686.9 196.1 683.7 197.4Q680.4 198.8 676.1 198.8L676.1 198.8Q669.6 198.8 665.8 196.0Q662.0 193.3 661.3 188.6L661.3 188.6L670.2 188.2Q670.6 190.2 672.2 191.2Q673.7 192.2 676.2 192.2L676.2 192.2Q678.5 192.2 680.0 191.3Q681.5 190.4 681.5 188.9L681.5 188.9Q681.5 187.7 680.4 186.9Q679.4 186.1 677.3 185.6L677.3 185.6L671.6 184.5Q666.8 183.6 664.5 181.2Q662.2 178.8 662.2 175.2L662.2 175.2Q662.2 172.0 663.9 169.7Q665.6 167.4 668.7 166.2Q671.8 165.0 676.0 165.0L676.0 165.0Q682.2 165.0 685.8 167.6Q689.4 170.2 690.0 174.7ZM709.4 198.8L709.4 198.8Q704.3 198.8 700.7 196.7Q697.0 194.7 695.1 190.9Q693.1 187.1 693.1 181.9L693.1 181.9Q693.1 176.9 695.1 173.0Q697.0 169.2 700.6 167.1Q704.2 165.0 709 165.0L709 165.0Q712.2 165.0 715.0 166.0Q717.8 167.0 719.9 169.1Q722.0 171.2 723.2 174.3Q724.4 177.4 724.4 181.6L724.4 181.6L724.4 184.1L696.7 184.1L696.7 178.5L715.8 178.5Q715.8 176.5 715.0 175.0Q714.1 173.5 712.6 172.6Q711.1 171.7 709.1 171.7L709.1 171.7Q707.1 171.7 705.5 172.7Q703.9 173.6 703.0 175.2Q702.1 176.8 702.1 178.8L702.1 178.8L702.1 184.1Q702.1 186.5 703.0 188.3Q703.9 190.1 705.6 191.0Q707.2 192.0 709.5 192.0L709.5 192.0Q711.0 192.0 712.3 191.6Q713.5 191.1 714.4 190.3Q715.3 189.4 715.8 188.2L715.8 188.2L724.2 188.8Q723.6 191.8 721.6 194.0Q719.6 196.3 716.5 197.5Q713.4 198.8 709.4 198.8ZM728.3 154.5L737.4 154.5L737.4 198.1L728.3 198.1L728.3 154.5ZM740.0 165.4L760.2 165.4L760.2 172.2L740.0 172.2L740.0 165.4ZM753.7 198.1L744.7 198.1L744.7 163.0Q744.7 159.5 746.0 157.1Q747.4 154.8 749.9 153.6Q752.3 152.4 755.4 152.4L755.4 152.4Q757.5 152.4 759.2 152.8Q761.0 153.1 761.8 153.3L761.8 153.3L760.2 160.2Q759.7 160.0 758.9 159.8Q758.1 159.7 757.3 159.7L757.3 159.7Q755.3 159.7 754.5 160.6Q753.7 161.5 753.7 163.2L753.7 163.2L753.7 198.1ZM765.7 198.7L765.7 198.7Q763.6 198.7 762.1 197.2Q760.5 195.7 760.5 193.6L760.5 193.6Q760.5 191.5 762.1 190.0Q763.6 188.5 765.7 188.5L765.7 188.5Q767.7 188.5 769.2 190.0Q770.8 191.5 770.8 193.6L770.8 193.6Q770.8 195.0 770.1 196.1Q769.3 197.3 768.2 198.0Q767.0 198.7 765.7 198.7Z "/></clipPath><defs><pattern id="satori_pattern_id-1_0" x="0" y="0" width="1" height="1" patternUnits="objectBoundingBox"><linearGradient id="satori_biid-1_0" x1="0" y1="0" x2="1" y2="0" spreadMethod="pad"><stop offset="0%" stop-color="rgb(255, 77, 77)"/><stop offset="100%" stop-color="rgb(249, 203, 40)"/></linearGradient><rect x="0" y="0" width="696" height="72" fill="url(#satori_biid-1_0)"/></pattern></defs><mask id="satori_om-id-1"><rect x="80" y="140" width="696" height="72" fill="#fff"/></mask><rect x="80" y="140" width="696" height="72" fill="url(#satori_pattern_id-1_0)" clip-path="url(#satori_bct-id-1)"/></svg>